# xmcd
#
# Track frame offsets:
#	150
#	12785
#	25102
#	35677
#	47990
#	57340
#	69337
#	79417
#	91105
#	103230
#	112365
#	123100
#	134007
#	147680
#	162170
#	174960
#	185235
#	198935
#	208750
#	218295
#
# Disc length: 3149 seconds
#
# Revision: 1
# Processed by: cddbd v1.5.2PL0 Copyright (c) Steve Scherf et al.
# Submitted via: audiograbber 1.83.01
#
DISCID=280c4b14
DTITLE=Porter Wagoner - The Essential Porter Wagoner
DYEAR=1997
DGENRE=Country
TTITLE0=A Satisfied Mind
TTITLE1=Company's Comin'
TTITLE2=Eat, Drink And Be Merry (For Tomorrow You'll Cry)
TTITLE3=What Would You Do (If Jesus Came To Your House)
TTITLE4=Tryin' To Forget The Blues
TTITLE5=I Thought I Heard You Calling My Name
TTITLE6=Your Old Love Letters
TTITLE7=Misery Loves Company
TTITLE8=I've Enjoyed As Much Of This As I Can Stand
TTITLE9=Sorrow On The Rocks
TTITLE10=Green, Green Grass Of Home
TTITLE11=I'll Go Down Swinging
TTITLE12=Skid Row Joe
TTITLE13=The Cold Hard Facts Of Life
TTITLE14=The Carroll County Accident
TTITLE15=Big Wind
TTITLE16=The Last One To Touch Me
TTITLE17=What Ain't To Be, Just Might Happen
TTITLE18=Highway Headin' South
TTITLE19=I Haven't Learned A Thing (Guest Vocal: Merle Haggard)
EXTD=
EXTT0=
EXTT1=
EXTT2=
EXTT3=
EXTT4=
EXTT5=
EXTT6=
EXTT7=
EXTT8=
EXTT9=
EXTT10=
EXTT11=
EXTT12=
EXTT13=
EXTT14=
EXTT15=
EXTT16=
EXTT17=
EXTT18=
EXTT19=
PLAYORDER=
